<svg xmlns="http://www.w3.org/2000/svg">
    <symbol id="floppy">
        <path d="M.5 0h2.154v2.154H.5zM.5 2.154h2.154v2.154H.5zM.5 4.308h2.154v2.154H.5zM.5 6.462h2.154v2.154H.5z"/>
        <path d="M.5 8.615h2.154v2.154H.5zM.5 10.769h2.154v2.154H.5zM.5 12.923h2.154v2.154H.5zM.5 15.077h2.154v2.154H.5zM.5 17.231h2.154v2.154H.5zM.5 19.385h2.154v2.154H.5z"/>
        <path d="M.5 21.538h2.154v2.154H.5zM.5 23.692h2.154v2.154H.5zM.5 25.846h2.154V28H.5zM24.193 0v2.154h-2.154V0z"/>
        <path d="M22.04 0v2.154h-2.155V0zM19.884 0v2.154H17.73V0zM17.73 0v2.154h-2.154V0z"/>
        <path d="M15.577 0v2.154h-2.154V0zM13.423 0v2.154H11.27V0zM11.27 0v2.154H9.115V0z"/>
        <path d="M9.116 0v2.154H6.962V0zM6.96 0v2.154H4.808V0zM4.807 0v2.154H2.653V0zM26.346 2.154v2.154h-2.154V2.154zM6.96 4.308v2.154H4.808V4.308zM6.961 2.154v2.154H4.807V2.154zM6.96 6.462v2.154H4.808V6.462zM22.039 4.308v2.154h-2.154V4.308zM22.04 2.154v2.154h-2.155V2.154zM22.039 6.462v2.154h-2.154V6.462zM17.73 4.307v2.154h-2.154V4.307z"/>
        <path d="M17.73 2.154v2.154h-2.153V2.154zM17.73 6.461v2.154h-2.154V6.461zM22.04 8.615v2.154h-2.155V8.615zM19.884 8.615v2.154H17.73V8.615zM17.73 8.615v2.154h-2.153V8.615zM15.577 8.615v2.154h-2.154V8.615zM13.423 8.615v2.154H11.27V8.615zM11.27 8.616v2.154H9.116V8.616zM9.116 8.615v2.154H6.962V8.615zM6.961 8.615v2.154H4.807V8.615zM24.193 15.077v2.154h-2.154v-2.154zM22.039 15.077v2.154h-2.154v-2.154zM19.884 15.077v2.154H17.73v-2.154zM17.73 15.076v2.154h-2.154v-2.154z"/>
        <path d="M15.577 15.077v2.154h-2.154v-2.154zM13.423 15.077v2.154h-2.154v-2.154z"/>
        <path d="M11.27 15.077v2.154H9.114v-2.154z"/>
        <path d="M9.116 15.077v2.154H6.962v-2.154zM6.96 15.077v2.154H4.808v-2.154zM24.192 17.231v2.154h-2.154v-2.154z"/>
        <path d="M6.96 17.23v2.155H4.808V17.23zM24.192 19.385v2.154h-2.154v-2.154zM6.96 19.385v2.154H4.808v-2.154zM24.193 21.539v2.154h-2.154v-2.154z"/>
        <path d="M6.961 21.538v2.154H4.807v-2.154zM6.961 23.692v2.154H4.807v-2.154zM24.193 23.693v2.154H22.04v-2.154z"/>
        <path d="M26.346 25.846V28h-2.154v-2.154z"/>
        <path d="M24.193 25.846V28h-2.154v-2.154zM22.039 25.846V28h-2.154v-2.154zM19.884 25.846V28H17.73v-2.154zM17.73 25.845V28h-2.154v-2.154z"/>
        <path d="M15.577 25.846V28h-2.154v-2.154zM13.423 25.846V28h-2.154v-2.154z"/>
        <path d="M11.27 25.846V28H9.114v-2.154z"/>
        <path d="M9.116 25.846V28H6.962v-2.154zM6.96 25.846V28H4.808v-2.154zM4.807 25.846V28H2.653v-2.154zM28.5 28h-2.154v-2.154H28.5zM28.5 25.846h-2.154v-2.154H28.5z"/>
        <path d="M28.5 23.693h-2.154v-2.154H28.5zM28.5 21.539h-2.154v-2.154H28.5zM28.5 19.385h-2.154V17.23H28.5zM28.5 17.23h-2.154v-2.154H28.5z"/>
        <path d="M28.5 15.077h-2.154v-2.154H28.5zM28.5 12.923h-2.154V10.77H28.5zM28.5 10.77h-2.154V8.616H28.5zM28.5 8.615h-2.154V6.461H28.5zM28.5 6.461h-2.154V4.307H28.5z"/>
    </symbol>
    <symbol id="floppy_39">
        <path d="M0 0h3v3H0zM0 3h3v3H0zM0 6h3v3H0zM0 9h3v3H0zM0 12h3v3H0zM0 15h3v3H0zM0 18h3v3H0zM0 21h3v3H0zM0 24h3v3H0zM0 27h3v3H0zM0 30h3v3H0zM0 33h3v3H0zM0 36h3v3H0zM33 0v3h-3V0z"/>
        <path d="M30.003 0v3h-3V0zM27 0v3h-3V0zM24 0v3h-3V0zM20.999 0v3h-3V0z"/>
        <path d="M18 0v3h-3V0zM14.999 0v3h-3V0z"/>
        <path d="M12 0v3H9V0zM8.996 0v3h-3V0z"/>
        <path d="M6 0v3H3V0zM36 3v3h-3V3zM8.996 6v3h-3V6zM8.996 3v3h-3V3zM8.996 9v3h-3V9zM30.003 6v3h-3V6zM30.003 3v3h-3V3zM30.003 9v3h-3V9zM24 6v3h-3V6zM24 3v3h-3V3zM24 9v3h-3V9zM30.003 12v3h-3v-3zM27 12v3h-3v-3zM24 12v3h-3v-3zM20.999 12v3h-3v-3z"/>
        <path d="M18 12v3h-3v-3zM14.999 12v3h-3v-3z"/>
        <path d="M12 12v3H9v-3zM8.996 12v3h-3v-3zM33 21v3h-3v-3z"/>
        <path d="M30.003 21v3h-3v-3zM27 21v3h-3v-3zM24 21v3h-3v-3zM20.999 21v3h-3v-3z"/>
        <path d="M18 21v3h-3v-3zM14.999 21v3h-3v-3z"/>
        <path d="M12 21v3H9v-3zM8.996 21v3h-3v-3zM33 24v3h-3v-3zM8.996 24v3h-3v-3zM33 27v3h-3v-3zM8.996 27v3h-3v-3zM33 30v3h-3v-3zM8.996 30v3h-3v-3zM8.996 33v3h-3v-3zM33 33v3h-3v-3zM36 36v3h-3v-3zM33 36v3h-3v-3z"/>
        <path d="M30.003 36v3h-3v-3zM27 36v3h-3v-3zM24 36v3h-3v-3zM20.999 36v3h-3v-3z"/>
        <path d="M18 36v3h-3v-3zM14.999 36v3h-3v-3z"/>
        <path d="M12 36v3H9v-3zM8.996 36v3h-3v-3z"/>
        <path d="M6 36v3H3v-3zM39 39h-3v-3h3zM39 36h-3v-3h3zM39 33h-3v-3h3zM39 30h-3v-3h3zM39 27h-3v-3h3zM39 24h-3v-3h3zM39 21h-3v-3h3zM39 18h-3v-3h3zM39 15h-3v-3h3zM39 12h-3V9h3zM39 9h-3V6h3z"/>
    </symbol>
</svg>